<svg width="1346" height="159" viewBox="0 0 1346 159" fill="none" xmlns="http://www.w3.org/2000/svg">
<g clip-path="url(#clip0_185_126)">
<mask id="mask0_185_126" style="mask-type:luminance" maskUnits="userSpaceOnUse" x="0" y="0" width="1346" height="159">
<path d="M1346 0H0V159H1346V0Z" fill="white"/>
</mask>
<g mask="url(#mask0_185_126)">
<path d="M0 158.919V1.38647H112.706V27.0711H33.5878V67.4326H103.5V92.8728H33.5878V158.919H0Z" fill="#3E5128"/>
<path d="M131.119 158.919V1.38647H164.707V133.479H243.575V158.919H131.119Z" fill="#3E5128"/>
<path d="M257.006 158.918L318.211 1.38501H355.034L415.989 158.918H381.157L365.98 121.002H307.015L292.087 158.918H257.006ZM311.991 95.5622H361.004L336.373 32.2065L311.991 95.5622Z" fill="#3E5128"/>
<path d="M457.541 158.918V26.825H408.279V1.38501H540.142V26.825H491.13V158.918H457.541Z" fill="#3E5128"/>
<path d="M558.55 158.918V1.38501H633.688C646.293 1.38501 656.618 3.74963 664.663 8.47887C672.707 13.2081 678.72 19.6496 682.701 27.8035C686.682 35.9573 688.672 45.2527 688.672 55.6896C688.672 66.1265 686.391 75.6665 681.83 83.8204C677.269 91.9741 670.8 98.2932 662.424 102.778C654.048 107.263 644.137 109.505 632.693 109.505H592.138V158.918H558.55ZM592.138 83.3313H625.726C635.346 83.3313 642.603 80.8441 647.496 75.8704C652.389 70.8965 654.835 64.1696 654.835 55.6896C654.835 46.5573 652.513 39.5858 647.869 34.775C643.225 29.9642 636.258 27.5589 626.97 27.5589H592.138V83.3313Z" fill="#3E5128"/>
<path d="M995.194 158.919V1.38647H1028.78V158.919H995.194Z" fill="#3E5128"/>
<path d="M1057.15 158.918V1.38501H1086.25L1162.13 106.325V1.38501H1195.72V158.918H1166.62L1090.73 53.9773V158.918H1057.15Z" fill="#3E5128"/>
<path d="M1263.4 158.919V26.8265H1214.14V1.38647H1346V26.8265H1296.99V158.919H1263.4Z" fill="#3E5128"/>
<path d="M748.384 19.61C738.681 36.4885 733.83 56.3838 733.83 79.3372C733.83 102.29 738.681 122.185 748.384 139.064C752.655 146.484 757.839 153.047 763.644 159H724.499C711.935 135.884 705.549 109.384 705.549 79.3372C705.549 49.4531 711.852 23.0346 724.334 0H763.353C757.673 5.87077 752.572 12.3123 748.384 19.61Z" fill="#3E5128"/>
<path d="M929.217 19.61C938.923 36.4885 943.769 56.3838 943.769 79.3372C943.769 102.29 938.923 122.185 929.217 139.064C924.948 146.484 919.764 153.047 913.957 159H953.099C965.666 135.884 972.05 109.384 972.05 79.3372C972.05 49.29 965.751 23.0346 953.268 0H914.249C919.926 5.87077 925.033 12.3123 929.217 19.61Z" fill="#3E5128"/>
</g>
</g>
<defs>
<clipPath id="clip0_185_126">
<rect width="1346" height="159" fill="white"/>
</clipPath>
</defs>
</svg>
