<svg width="1440" height="469" viewBox="0 0 1440 469" fill="none" xmlns="http://www.w3.org/2000/svg">
<path d="M-506 333.289C-503.469 327.055 -423.943 249.669 -297.457 137.825C-242.102 88.8768 -144.251 111.842 -28.7256 127.619C25.5325 135.029 71.1108 156.716 128.039 184.026C159.138 198.944 227 226.5 323.758 216.629C424.022 206.401 526.245 133.787 590.271 133.787C683.5 133.787 724.542 177.049 829.629 197.951C957.62 223.409 1044.59 220.247 1078.08 214.209C1183.19 195.26 1286.04 142.804 1371.12 128.243C1387.65 127.12 1400.49 127.519 1420.96 129.078C1441.42 130.637 1469.11 133.344 1512.12 140.043" stroke="#981214" stroke-width="2" stroke-linecap="round" stroke-dasharray="10 10"/>
<circle cx="888" cy="205" r="29" fill="#981214"/>
<path d="M888 204.5C887.337 204.5 886.701 204.237 886.232 203.768C885.763 203.299 885.5 202.663 885.5 202C885.5 201.337 885.763 200.701 886.232 200.232C886.701 199.763 887.337 199.5 888 199.5C888.663 199.5 889.299 199.763 889.768 200.232C890.237 200.701 890.5 201.337 890.5 202C890.5 202.328 890.435 202.653 890.31 202.957C890.184 203.26 890 203.536 889.768 203.768C889.536 204 889.26 204.184 888.957 204.31C888.653 204.435 888.328 204.5 888 204.5ZM888 195C886.143 195 884.363 195.737 883.05 197.05C881.737 198.363 881 200.143 881 202C881 207.25 888 215 888 215C888 215 895 207.25 895 202C895 200.143 894.263 198.363 892.95 197.05C891.637 195.737 889.857 195 888 195Z" fill="white"/>
</svg>
