<svg width="1440" height="141" viewBox="0 0 1440 141" fill="none" xmlns="http://www.w3.org/2000/svg">
<path d="M-136 139.191C-124.561 134.446 -87.3855 118.464 -33.4642 96.3025C-9.98337 86.6522 8.21718 82.4441 38.0986 76.9493C67.9801 71.4545 101.418 46.296 135.5 29.6914C174.654 10.6158 220.064 -6.8466 247 4.69745C282 19.6975 314.717 77.0978 368.5 92.4537C414.84 105.685 476.889 44.3662 525 50.1914C573.111 56.0167 607.5 77.1915 607.5 77.1915C607.5 77.1915 633.528 91.3554 660.851 92.4537C688.174 93.552 731.883 94.4874 766.325 93.875C800.768 93.2627 821.857 90.431 853 76.6915C887 61.6915 928.753 42.0554 982 29.6914C1035.25 17.3275 1047 50.6915 1082 76.6915C1120.33 105.169 1185.19 96.4244 1203 92.1915C1264 77.6914 1268.77 35.3428 1307 18.6915C1369.37 -8.47213 1404.9 46.8865 1428.39 47.6839C1458.72 47.6408 1486.16 43.4968 1504.16 36.3794C1512.04 33.1625 1517.35 30.7474 1524 27.2204" stroke="#F6F4EF" stroke-width="2" stroke-linecap="round" stroke-dasharray="4 4"/>
</svg>
