<svg width="320" height="331" viewBox="0 0 320 331" fill="none" xmlns="http://www.w3.org/2000/svg">
<path d="M-60 77.7037C-59.4943 75.5019 -53.4669 60.5498 -44.2047 43.7626C-40.2824 36.6536 -33.5366 31.2784 -24.3974 24.4993C-9.49573 13.4459 6.64067 6.93556 18.2479 3.77938C32.1753 -0.0076983 51.903 0.399555 70.3329 0.654659C80.3925 0.793902 85.8064 2.76484 90.771 4.85821C103.037 10.03 121.047 31.2426 109.229 47C106.229 51 100.225 48.3268 99.7285 47C97.1377 40.078 111.99 33.2289 115.337 30.8269C117.582 29.2158 121.229 27.7208 128.229 28C137.911 28.3862 147.064 39.3873 156.165 52.5198C165.15 65.4863 162.278 81.8717 160.741 92.8524C160.133 97.1979 167.847 77.7914 178.701 66.7099C189.034 56.1604 206.245 55.8842 226.649 54.4542C240.297 53.4977 255.449 53.6373 266.544 54.4619C277.64 55.2865 281.059 56.3524 283.406 57.1693C287.229 58.5 291.471 60.5 295.229 64.5C299.729 69.2901 301.496 74.0509 310.583 86.3455C319.534 98.4564 323.84 111.891 327.242 122.484C331.248 134.958 331.135 146.298 330.91 154.293C330.533 167.685 323.89 181.482 318.768 191.063C318.016 192.469 316.51 193.345 315.37 194.12C304.503 201.509 277.718 195.853 272.755 194.015C261.56 189.867 250.667 156.118 266.544 157.222C277.729 158 272.836 170.796 271.229 174C267.306 181.815 248.205 186.636 232.657 189.512C221.519 191.572 203.186 192.029 189.166 193.152C165.805 195.023 150.58 196.254 139.431 195.348C128.633 194.471 116.481 191.754 104.677 191.743C97.9653 191.737 83.8637 198.109 63.3981 207.734C54.8012 211.777 50.6939 215.355 46.856 215.296C31.8866 215.067 24.0851 201.905 7.81403 196.454C3.95502 195.162 -0.151303 195.019 -3.01054 195.41C-7.87352 196.075 -9.87018 199.919 -12.032 204.184C-15.5809 211.185 -21.1014 223.627 -26.7532 244.572C-30.1371 257.112 -31.7849 274.015 -32.9896 286.569C-33.3704 319.277 -31.1882 328.842 -30.2519 329.5C-29.8251 329.288 -29.4967 327.968 -29.1584 326.608" stroke="white" stroke-linecap="round" stroke-dasharray="2 2"/>
</svg>
