<svg width="213" height="25" viewBox="0 0 213 25" fill="none" xmlns="http://www.w3.org/2000/svg">
<g clip-path="url(#clip0_222_172)">
<mask id="mask0_222_172" style="mask-type:luminance" maskUnits="userSpaceOnUse" x="0" y="0" width="213" height="25">
<path d="M212.332 0H0V25H212.332V0Z" fill="white"/>
</mask>
<g mask="url(#mask0_222_172)">
<path d="M0 24.9873V0.218018H17.7793V4.25648H5.29848V10.6026H16.3272V14.6027H5.29848V24.9873H0Z" fill="white"/>
<path d="M20.6841 24.9873V0.218018H25.9825V20.9873H38.4241V24.9873H20.6841Z" fill="white"/>
<path d="M40.543 24.9871L50.198 0.217773H56.0068L65.6225 24.9871H60.1277L57.7336 19.0255H48.4319L46.0769 24.9871H40.543ZM49.2168 15.0255H56.9487L53.0631 5.06392L49.2168 15.0255Z" fill="white"/>
<path d="M72.1773 24.9871V4.21778H64.4062V0.217773H85.2077V4.21778H77.4759V24.9871H72.1773Z" fill="white"/>
<path d="M88.1113 24.9871V0.217773H99.9643C101.953 0.217773 103.582 0.589569 104.851 1.33316C106.12 2.07674 107.068 3.08957 107.696 4.37162C108.324 5.65367 108.638 7.11521 108.638 8.75623C108.638 10.3973 108.278 11.8973 107.559 13.1793C106.839 14.4613 105.819 15.4549 104.497 16.16C103.176 16.8653 101.613 17.2178 99.8073 17.2178H93.4098V24.9871H88.1113ZM93.4098 13.1024H98.7083C100.226 13.1024 101.371 12.7113 102.142 11.9293C102.914 11.1473 103.3 10.0896 103.3 8.75623C103.3 7.32034 102.934 6.22418 102.201 5.46777C101.469 4.71136 100.37 4.33316 98.9046 4.33316H93.4098V13.1024Z" fill="white"/>
<path d="M156.992 24.9873V0.218018H162.291V24.9873H156.992Z" fill="white"/>
<path d="M166.765 24.9871V0.217773H171.356L183.327 16.7178V0.217773H188.625V24.9871H184.034L172.063 8.48701V24.9871H166.765Z" fill="white"/>
<path d="M199.302 24.9873V4.21802H191.531V0.218018H212.332V4.21802H204.6V24.9873H199.302Z" fill="white"/>
<path d="M118.058 3.08333C116.527 5.73718 115.762 8.86538 115.762 12.4744C115.762 16.0833 116.527 19.2115 118.058 21.8654C118.732 23.032 119.549 24.064 120.465 25H114.29C112.308 21.3654 111.301 17.1987 111.301 12.4744C111.301 7.77564 112.295 3.6218 114.264 0H120.419C119.523 0.923077 118.718 1.93589 118.058 3.08333Z" fill="white"/>
<path d="M146.584 3.08333C148.115 5.73718 148.88 8.86538 148.88 12.4744C148.88 16.0833 148.115 19.2115 146.584 21.8654C145.911 23.032 145.093 24.064 144.177 25H150.351C152.334 21.3654 153.341 17.1987 153.341 12.4744C153.341 7.75 152.347 3.6218 150.378 0H144.223C145.118 0.923077 145.924 1.93589 146.584 3.08333Z" fill="white"/>
</g>
</g>
<defs>
<clipPath id="clip0_222_172">
<rect width="212.332" height="25" fill="white"/>
</clipPath>
</defs>
</svg>
