<svg width="1440" height="138" viewBox="0 0 1440 138" fill="none" xmlns="http://www.w3.org/2000/svg">
<path d="M-231 113.447C-230.592 113.447 -220.687 111.383 -145.81 108.308C-80.6745 105.634 39.7492 107.403 139.422 87.4862C239.095 67.5692 314.416 27.6265 376.563 10.6349C438.71 -6.35666 485.401 0.813259 529.463 19.0067C573.526 37.2001 613.546 66.1998 660.732 88.6307C707.919 111.062 761.058 126.045 818.36 132.937C875.661 139.83 935.513 138.177 1019.63 124.994C1103.74 111.81 1210.29 87.1462 1290.3 76.5451C1370.3 65.944 1420.52 70.1531 1460.99 80.6289C1501.46 91.1047 1530.66 107.72 1552.4 116.279C1574.15 124.838 1587.56 124.838 1597.85 123.214C1608.15 121.589 1614.93 118.34 1623.18 111.877C1631.43 105.414 1640.95 95.8349 1650.76 85.966" stroke="#95A095" stroke-width="2" stroke-linecap="round" stroke-dasharray="4 4"/>
</svg>
